<?xml version="1.0" encoding="iso-8859-1"?>
<!-- Generator: Adobe Illustrator 27.5.0, SVG Export Plug-In . SVG Version: 6.00 Build 0)  -->
<svg version="1.1" id="_&#x30EC;&#x30A4;&#x30E4;&#x30FC;_1"
	 xmlns="http://www.w3.org/2000/svg" xmlns:xlink="http://www.w3.org/1999/xlink" x="0px" y="0px" viewBox="0 0 273.2 63.2"
	 style="enable-background:new 0 0 273.2 63.2;" xml:space="preserve">
<g>
	<path style="fill:#111111;" d="M11.5-44.5c-2.9-5.1-6.2-9.9-9.3-13.6L3.6-60c4.4,1.4,10.2,4,14,6.4L11.5-44.5z M2.4-21
		c7.3-8.7,13-18.2,17-27.2l2,1.1c-1.5,10.3-4.9,22.3-9.6,32.6L2.4-21z M16.8-61.1c-3.1-5.2-6.3-9.5-9.3-12.6l1.4-2.1
		c4.4,1.3,10,3.5,14.3,5.8L16.8-61.1z M60.9-12.8c-10.8-6.3-16.8-16.5-19.3-30.1h-5.9v19.6c3.2-0.3,6.6-0.6,10.2-1.2l0.4,1.9
		c-8.6,4.3-16,7.5-23.7,9.6l-2.8-9.5c2.6,0,5.2-0.1,7.8-0.2V-70h11.8v-6h9v6h12.1v27.1h-3.7l7.5,6.5c-3.7,2.4-8,4.3-12,5.6
		c3.4,3.9,9,6.9,14.8,8.7L60.9-12.8z M52.5-67.4H35.6v9.1h16.9V-67.4z M52.5-55.7H35.6v10.3h16.9V-55.7z M43.8-42.9
		c1.8,3.8,3.7,7.1,6.1,9.7c2.7-3,4.9-6.2,6.4-9.7H43.8z"/>
	<path style="fill:#111111;" d="M77.4-45.5c-2.6-6.1-5.1-10-8-13.7l1.5-2.2c4.6,1.5,8.7,3.5,12.9,6.4L77.4-45.5z M69.6-20.8
		c7.5-9,11.8-17.8,15.4-26.5l2.4,1.2c-1.4,10-3.7,19.7-7.8,31.1L69.6-20.8z M83.4-61.1c-2.9-5.2-5.8-9.4-8.8-12.9l1.5-1.9
		c4.6,1.5,9.5,3.8,13.6,6L83.4-61.1z M131.3-13c-8-0.9-15.4-2.9-21.7-6.1c-7.5,3-15.8,4.8-24.5,6.1l-0.7-2.2
		c6.7-1.8,13.5-4.3,19.6-7.5c-4-3.1-7.4-6.9-10-11.5h-3.9v-2.6h39.3v4.7c-3.4,3.4-7.2,6.3-11.2,8.6c3.7,0.6,7.6,0.9,11.7,0.9
		c1.2,0,2.5,0,3.8-0.1L131.3-13z M88.9-40.2v-13.9h42.8v13.9C131.7-40.2,88.9-40.2,88.9-40.2z M92.6-57.4V-76h35v18.6H92.6z
		 M100.8-51.5h-4.1v8.7h4.1V-51.5z M97.3-34.2c3.3,3.8,7.5,6.4,12.3,8.4c3.9-2.5,7.3-5.3,9.8-8.4C119.4-34.2,97.3-34.2,97.3-34.2z
		 M119.5-73.3h-18.7v5.3h18.7V-73.3z M119.5-65.5h-18.7v5.5h18.7V-65.5z M112.3-51.5h-4.7v8.7h4.7V-51.5z M123.9-51.5h-4.8v8.7h4.8
		V-51.5z"/>
	<path style="fill:#111111;" d="M198.9-13.1c-11.7-6.1-20.5-20-23.4-38.3c-2.9,18.1-12.8,30.8-33.2,38.3l-1.3-2.2
		c21.1-12.9,26.1-29.1,26.1-50.3V-76h9.5v10.4c0,2.4-0.1,4.6-0.2,6.9c4.9,21.2,14.2,29.7,28.4,34.9L198.9-13.1z"/>
	<g>
		<path style="fill:#111111;" d="M237.2-29.2v-15.9h-16.6v-2.8h16.6v-13h-13c-3.5,5-7.7,9.5-13.4,14l-1.6-1.5
			c5.7-8.3,8.7-16.9,10.1-26.8l11.3,2.2c-1.4,3.4-2.9,6.5-4.7,9.3h11.2V-76h9.5v12.3h21.5v2.8h-21.5v13H264v2.8h-17.4v15.9"/>
		<g>
			<path style="fill:#111111;" d="M208.8-29.2h-0.6c-0.1,0-0.1-0.1-0.1-0.1s0-0.1,0.1-0.1h3.3c0.8,0,1.5,0.4,2.1,1.1s0.9,1.7,0.9,3
				c0,0.7-0.1,1.4-0.3,1.9c-0.2,0.6-0.6,1-1,1.4c-0.3,0.2-0.7,0.4-1.3,0.6c0.6,0.2,1.1,0.4,1.3,0.6c0.4,0.3,0.7,0.7,1,1.1
				c0.2,0.4,0.3,1,0.3,1.7v4c0,0.2,0,0.3,0.1,0.4c0.1,0.1,0.1,0.1,0.2,0.1c0.1,0,0.3-0.1,0.4-0.3c0.2-0.3,0.3-0.8,0.4-1.6
				c0-0.1,0-0.2,0.1-0.3l0.1-0.1c0,0,0.1,0,0.1,0.1s0.1,0.2,0.1,0.3c0,0.8-0.2,1.4-0.6,1.9c-0.4,0.4-0.8,0.7-1.4,0.7
				c-0.5,0-0.9-0.1-1.2-0.4c-0.3-0.3-0.4-0.7-0.4-1.2v-5.8c0-0.5-0.1-0.8-0.4-1c-0.1-0.1-0.5-0.1-1-0.1v8.1h0.5c0.1,0,0.1,0,0.1,0
				v0.1v0.1h-0.1h-3.3h-0.1v-0.1v-0.1h0.1h0.6L208.8-29.2L208.8-29.2z M210.8-29.2v7.6h0.5c0.2,0,0.4-0.1,0.6-0.3
				c0.2-0.2,0.2-0.4,0.2-0.8v-5.7c0-0.3-0.1-0.6-0.2-0.7c-0.1-0.1-0.3-0.2-0.7-0.2h-0.4L210.8-29.2L210.8-29.2z"/>
			<path style="fill:#111111;" d="M222.3-23v4c0,2.3-0.4,4-1.1,5.1c-0.5,0.7-1.1,1.1-1.9,1.1c-0.5,0-1-0.2-1.4-0.6
				c-0.4-0.4-0.8-0.9-1-1.6c-0.4-1.2-0.6-2.4-0.6-3.8v-4.7c0-2.2,0.4-3.8,1.1-4.9c0.5-0.7,1.1-1.1,1.8-1.1c0.4,0,0.7,0.1,1,0.2
				c0.3,0.2,0.6,0.4,0.8,0.7s0.4,0.7,0.6,1.3c0.2,0.5,0.3,1.1,0.4,1.6C222.2-24.7,222.3-23.8,222.3-23z M218.6-14.6
				c0,0.6,0.1,1,0.3,1.2c0.1,0.2,0.3,0.3,0.5,0.3s0.3-0.1,0.5-0.2c0.1-0.2,0.2-0.4,0.2-0.7v-14c0-0.4-0.1-0.7-0.3-0.9
				c-0.1-0.2-0.3-0.3-0.5-0.3s-0.3,0.1-0.4,0.2c-0.2,0.2-0.2,0.5-0.2,0.9v13.5C218.7-14.6,218.6-14.6,218.6-14.6z"/>
			<path style="fill:#111111;" d="M223.8-29.2h-0.6H223v-0.1v-0.1h0.1h2.9l1,10.1l1.3-10.1h2.9h0.1v0.1v0.1h-0.1h-0.7v16h0.7l0,0
				v0.1v0.1c0,0,0,0-0.1,0h-3.5h-0.1v-0.1v-0.1h0.1h0.7v-15.3l-1.9,15.2c0,0.2-0.1,0.3-0.1,0.3h-0.1h-0.7h-0.1c0,0,0-0.1-0.1-0.3
				l-1.5-15v14c0,0.4,0,0.6,0.1,0.8s0.2,0.3,0.4,0.3h0.5l0.1,0.1c0,0.1,0,0.1,0,0.1h-0.1h-1.9h-0.1v-0.1v-0.1c0,0,0.1,0,0.2-0.1
				c0.2-0.1,0.4-0.2,0.4-0.3c0.1-0.2,0.2-0.5,0.2-0.8v-14.8H223.8z"/>
			<path style="fill:#111111;" d="M234.4-29.5h1.2l1.9,16.3h0.5c0.1,0.1,0.1,0.1,0.1,0.1s0,0.1-0.1,0.1h-3.2h-0.1v-0.1v-0.1h0.1h0.5
				l-0.3-3.2h-1.9l-0.2,1.8c0,0.1,0,0.2,0,0.3c0,0.3,0.1,0.6,0.2,0.7c0.1,0.2,0.3,0.3,0.5,0.3l0.2,0.1v0.1v0.1h-0.1h-1.8h-0.1v-0.1
				v-0.1h0.1c0.2,0,0.4-0.1,0.5-0.3c0.2-0.3,0.3-0.7,0.4-1.3L234.4-29.5z M234.2-25.3l-1.1,8.6h1.9L234.2-25.3z"/>
			<path style="fill:#111111;" d="M243.6-28.1c0-0.3,0-0.6-0.1-0.7s-0.2-0.2-0.4-0.3h-0.5l-0.1-0.1c0-0.1,0-0.1,0-0.1h0.1h1.9h0.1
				v0.1v0.1c0,0-0.1,0-0.2,0.1c-0.2,0.1-0.4,0.2-0.5,0.3s-0.1,0.4-0.2,0.8v15.1h-1.6L239.6-28v13.7c0,0.4,0,0.6,0.1,0.8
				s0.2,0.3,0.4,0.3h0.5l0.1,0.1c0,0.1,0,0.1,0,0.1h-0.1h-1.9h-0.1v-0.1v-0.1c0,0,0.1,0,0.2-0.1c0.2-0.1,0.4-0.2,0.5-0.3
				s0.1-0.4,0.2-0.8v-14.8h-0.6h-0.1v-0.1v-0.1h0.1h2.7l2.1,12.1L243.6-28.1L243.6-28.1z"/>
			<path style="fill:#111111;" d="M248.9-29.2h-0.7c-0.1-0.1-0.1-0.1-0.1-0.1s0-0.1,0.1-0.1h3.5h0.1v0.1v0.1h-0.1H251v16.1h0.4
				c0.3,0,0.6-0.1,0.8-0.3s0.5-0.6,0.7-1.2c0.3-0.9,0.6-1.8,0.7-2.8c0.2-1,0.2-1.7,0.2-2c0-0.1,0-0.2,0-0.2h0.1h0.1v0.1l-0.1,6.7
				H248h-0.1v-0.1V-13h0.1h0.7v-16.2H248.9z"/>
			<path style="fill:#111111;" d="M255.3-24.4h-0.4h-0.1v-0.1v-0.1h0.1h2.3v11.5h0.5h0.1v0.1v0.1h-0.1h-2.8c-0.1,0-0.1-0.1-0.1-0.1
				s0-0.1,0.1-0.1h0.4V-24.4z M255.2-28.3c0-0.3,0.1-0.6,0.3-0.8s0.5-0.3,0.8-0.3s0.6,0.1,0.8,0.3s0.3,0.5,0.3,0.8s-0.1,0.6-0.3,0.8
				c-0.2,0.2-0.5,0.3-0.8,0.3c-0.3,0-0.6-0.1-0.8-0.3C255.3-27.7,255.2-28,255.2-28.3z"/>
			<path style="fill:#111111;" d="M259.1-29.2h-0.7c-0.1-0.1-0.1-0.1-0.1-0.1c0-0.1,0-0.1,0.1-0.1h5.8v6.1v0.1c0,0,0,0-0.1,0H264
				c0,0,0-0.1,0-0.3c0-0.9-0.2-1.9-0.4-2.9c-0.3-1-0.5-1.7-0.7-2.1c-0.1-0.2-0.3-0.3-0.4-0.4c-0.2-0.1-0.4-0.1-0.8-0.1h-0.4v7.8
				c0.3,0,0.6-0.2,0.9-0.6c0.4-0.6,0.5-1.5,0.5-2.8v-0.6v-0.1h0.1h0.1v0.1v8.3v0.1h-0.1h-0.1v-0.1v-1c0-1.1-0.2-1.9-0.5-2.4
				c-0.2-0.4-0.5-0.5-0.9-0.6v8h0.7h0.1v0.1v0.1c0,0,0,0-0.1,0h-3.5c-0.1,0-0.1,0-0.1,0v-0.1v-0.1h0.1h0.7v-16.3H259.1z"/>
			<path style="fill:#111111;" d="M265.7-29.2H265c-0.1-0.1-0.1-0.1-0.1-0.1c0-0.1,0-0.1,0.1-0.1h6.1v6.1c0,0.1-0.1,0.1-0.1,0.1
				h-0.1c0,0,0-0.1,0-0.3c-0.1-1.2-0.2-2.4-0.6-3.4s-0.6-1.7-0.9-2c-0.2-0.1-0.4-0.2-0.8-0.2h-0.7v7.8c0.4,0,0.7-0.3,1-0.7
				c0.3-0.5,0.5-1.4,0.5-2.5v-0.9v-0.1h0.1h0.1v0.1v8.2v0.1h-0.1h-0.1v-0.1V-18c0-1.1-0.2-2-0.6-2.6c-0.2-0.4-0.5-0.6-0.7-0.6
				c-0.1,0-0.1,0-0.2,0.1c0,0.1-0.1,0.1-0.1,0.2v7.7h0.3c0.3,0,0.6-0.1,0.9-0.3s0.6-0.6,0.8-1.2c0.2-0.6,0.4-1.2,0.6-1.8
				c0.2-1.1,0.3-1.9,0.3-2.5v-0.7c0-0.1,0.1-0.1,0.1-0.1h0.1v0.1v6.8H265h-0.1V-13v-0.1h0.1h0.7V-29.2z"/>
		</g>
	</g>
</g>
<g>
	<path style="fill:#FFFFFF;" d="M18.4,23.2C14.6,20.9,9,18.4,4.7,17l-1.3,1.9c3,3.6,6.3,8.3,9.1,13.3L18.4,23.2z"/>
	<path style="fill:#FFFFFF;" d="M24,7.4C19.7,5.1,14.3,3,10,1.7l-1.3,2c2.9,3,6.1,7.2,9.1,12.3L24,7.4z"/>
	<path style="fill:#FFFFFF;" d="M52.4,45.4c4-1.3,8.1-3.1,11.8-5.4l-7.3-6.3h3.6V7.3H48.6v-7.5h-8.8v7.5H28.2v45.9
		c-2.6,0.1-5.1,0.2-7.6,0.2l2.7,9.3c7.5-2,14.8-5.1,23.2-9.3l-0.4-1.8c-3.5,0.5-6.8,0.8-10,1.1v-19h5.8C44.4,47,50.2,56.8,60.8,63
		l6-9C61.2,52.1,55.7,49.2,52.4,45.4z M36.1,18.7V9.8h16.6v8.8l0,0c0,0.7,0,1.7,0,2.2v0.3l0,0v10H36.1v-10 M44.1,33.7h12.2
		c-1.4,3.4-3.6,6.5-6.2,9.4C47.8,40.5,45.9,37.4,44.1,33.7z"/>
	<path style="fill:#FFFFFF;" d="M20.2,28.5c-3.9,8.8-9.5,18-16.6,26.4l9.2,6.3c4.6-10,7.9-21.7,9.4-31.7L20.2,28.5z"/>
	<g>
		<path style="fill:#FFCF00;" d="M37.9,26.6C43.1,21.4,43.1,21.4,37.9,26.6c4.7-5.7,4.7-6.5,0-12.2c5.2,5.2,5.2,5.2,0,0
			c5.7,4.7,6.5,4.7,12.2,0c-5.2,5.2-5.2,5.2,0,0c-4.7,5.7-4.7,6.5,0,12.2c-5.2-5.2-5.2-5.2,0,0C44.4,21.9,43.6,21.9,37.9,26.6z"/>
	</g>
</g>
<g>
	<path style="fill:#FFFFFF;" d="M91.8,0v18.6h35.3V0H91.8z M118.9,16.1H100v-5.5l0,0c0-0.8,0-2,0-2.6l0,0V2.7h18.9V16.1z"/>
	<path style="fill:#FFFFFF;" d="M84,28.8c-3.6,8.7-8,17.5-15.5,26.5l10.1,5.8C82.8,49.7,85,40,86.5,30L84,28.8z"/>
	<path style="fill:#FFFFFF;" d="M129.6,53.5c-4.1,0-8.1-0.3-11.8-0.9c4.1-2.3,7.8-5.2,11.3-8.6v-4.7H89.4v2.6h3.9
		c2.7,4.6,6.1,8.4,10.1,11.5c-6.2,3.2-13.1,5.7-19.8,7.5l0.7,2.2c8.8-1.3,17.1-3.2,24.7-6.1c6.4,3.3,13.8,5.3,21.9,6.1l2.5-9.7
		C132.1,53.5,130.8,53.5,129.6,53.5z M108.9,50.3c-4.8-2-9.1-4.6-12.4-8.4h22.3C116.3,44.9,112.9,47.8,108.9,50.3z"/>
	<path style="fill:#FFFFFF;" d="M82.9,21c-4.2-2.9-8.4-4.9-13-6.4l-1.5,2.2c3,3.8,5.5,7.6,8.1,13.7L82.9,21z"/>
	<path style="fill:#FFFFFF;" d="M88.9,6.1c-4.2-2.2-9.1-4.5-13.7-6l-1.5,2c3,3.5,5.9,7.7,8.8,12.9L88.9,6.1z"/>
	<path style="fill:#FFFFFF;" d="M88,35.9h43.2V22H88V35.9z M118.5,24.5h4.8v8.8h-4.8V24.5z M107,24.5h4.7v8.8H107V24.5z M95.9,24.5
		h4.1v8.8h-4.1V24.5z"/>
	<g>
		<path style="fill:#FFCF00;" d="M103.7,15.5C108.8,10.3,108.8,10.3,103.7,15.5c4.7-5.7,4.7-6.5,0-12.2c5.2,5.2,5.2,5.2,0,0
			c5.7,4.7,6.5,4.7,12.2,0c-5.2,5.2-5.2,5.2,0,0c-4.7,5.7-4.7,6.5,0,12.2c-5.2-5.2-5.2-5.2,0,0C110.1,10.8,109.3,10.8,103.7,15.5z"
			/>
	</g>
</g>
<g>
	<path style="fill:#FFFFFF;" d="M191.6,59.6c-11.4-5.9-16.1-16.3-18.9-33.9c-2.9,17.5-12.5,29.6-32.3,36.9l-1.3-2.2
		c20.5-12.5,25.3-28,25.3-48.4V0.6h9.2V12c0,2.3-0.1,4.5-0.2,6.6c4.8,20.4,12.2,27.7,26,32.7L191.6,59.6z"/>
	<g>
		<path style="fill:#FFCF00;" d="M187.6,62.7C194.1,56.2,194.1,56.2,187.6,62.7c5.9-7.1,5.9-8.1,0-15.2c6.5,6.5,6.5,6.5,0,0
			c7.1,5.9,8.1,5.9,15.2,0c-6.5,6.5-6.5,6.5,0,0c-5.9,7.1-5.9,8.1,0,15.2c-6.5-6.5-6.5-6.5,0,0C195.8,56.9,194.8,56.9,187.6,62.7z"
			/>
	</g>
</g>
<g>
	<path style="fill:#FFFFFF;" d="M235.8,50.2V38.6H220v-3.1h15.8V20.8h-12.4c-3.3,5.7-7.4,10.7-12.8,15.8l-1.5-1.7
		c5.4-9.3,8.3-19,9.6-30.2l10.8,2.5c-1.4,3.8-2.8,7.3-4.4,10.5h10.7l0,0h9l0,0h20.5v3.1h-20.5v14.6h16.6v3.1h-16.6v11.6"/>
	<g>
		<path style="fill:#FFCF00;" d="M231.5,17.5C238.9,10,238.9,10,231.5,17.5c6.7-8.3,6.7-9.4-0.1-17.6c7.5,7.4,7.5,7.4,0.1-0.1
			c8.2,6.8,9.3,6.8,17.5,0c-7.4,7.5-7.4,7.5,0.1,0.1c-6.8,8.2-6.8,9.3,0,17.5c-7.5-7.4-7.5-7.4-0.1,0.1
			C240.8,10.7,239.6,10.7,231.5,17.5z"/>
	</g>
	<g>
		<g>
			<path style="fill:#FFFFFF;" d="M209.8,50.2h-0.6c-0.1,0-0.1-0.1-0.1-0.1s0-0.1,0.1-0.1h3.1c0.8,0,1.4,0.3,2,0.9
				c0.6,0.6,0.8,1.4,0.8,2.4c0,0.6-0.1,1.1-0.3,1.5c-0.2,0.5-0.5,0.8-1,1.1c-0.3,0.2-0.6,0.3-1.2,0.5c0.6,0.2,1,0.3,1.2,0.5
				c0.4,0.2,0.7,0.5,0.9,0.9c0.2,0.3,0.3,0.8,0.3,1.3v3.2c0,0.1,0,0.2,0.1,0.3s0.1,0.1,0.2,0.1c0.1,0,0.2-0.1,0.4-0.2
				c0.2-0.2,0.3-0.7,0.3-1.3c0-0.1,0-0.2,0.1-0.2l0.1-0.1c0,0,0.1,0,0.1,0.1c0,0,0,0.1,0,0.3c0,0.7-0.2,1.2-0.5,1.5
				s-0.8,0.5-1.3,0.5s-0.8-0.1-1.1-0.3c-0.2-0.2-0.4-0.5-0.4-0.9v-4.7c0-0.4-0.1-0.7-0.3-0.8c-0.1-0.1-0.4-0.1-0.9-0.1V63h0.5
				c0.1,0,0.1,0,0.1,0s0,0,0,0.1v0.1h-0.1h-3.1h-0.1c0,0,0,0,0-0.1V63h0.1h0.6L209.8,50.2L209.8,50.2z M211.8,50.2v6.1h0.5
				c0.2,0,0.4-0.1,0.6-0.2c0.1-0.1,0.2-0.3,0.2-0.6v-4.6c0-0.3-0.1-0.4-0.2-0.5c-0.1-0.1-0.3-0.1-0.6-0.1h-0.5V50.2z"/>
			<path style="fill:#FFFFFF;" d="M222.4,55.1v3.2c0,1.9-0.3,3.2-1,4.1c-0.5,0.6-1,0.9-1.7,0.9c-0.5,0-0.9-0.1-1.3-0.4
				c-0.4-0.3-0.7-0.7-0.9-1.3c-0.4-0.9-0.5-2-0.5-3.1v-3.8c0-1.8,0.3-3.1,1-3.9c0.5-0.6,1-0.9,1.7-0.9c0.3,0,0.6,0.1,0.9,0.2
				c0.3,0.1,0.5,0.3,0.7,0.6s0.4,0.6,0.6,1c0.2,0.4,0.3,0.9,0.4,1.3C222.4,53.7,222.4,54.4,222.4,55.1z M219.1,61.9
				c0,0.5,0.1,0.8,0.2,1c0.1,0.1,0.3,0.2,0.4,0.2c0.2,0,0.3-0.1,0.4-0.2c0.1-0.1,0.2-0.3,0.2-0.6V51c0-0.3-0.1-0.6-0.2-0.8
				c-0.1-0.1-0.3-0.2-0.4-0.2c-0.2,0-0.3,0.1-0.4,0.2c-0.2,0.2-0.2,0.4-0.2,0.8V61.9z"/>
			<path style="fill:#FFFFFF;" d="M223.7,50.2h-0.6H223c0,0,0,0,0-0.1V50h0.1h2.7l0.9,8.1l1.2-8.1h2.7h0.1c0,0,0,0,0,0.1v0.1h-0.1
				H230V63h0.6l0,0v0.1v0.1l0,0h-3.2h-0.1c0,0,0,0,0-0.1V63c0,0,0,0,0.1,0h0.7V50.7l-1.7,12.1c0,0.2,0,0.2-0.1,0.3c0,0,0,0-0.1,0
				h-0.6h-0.1c0,0,0-0.1-0.1-0.3l-1.4-12V62c0,0.3,0,0.5,0.1,0.6s0.2,0.2,0.4,0.3h0.4V63v0.1h-0.1h-1.7c0,0,0,0-0.1,0c0,0,0,0,0-0.1
				v-0.1c0,0,0.1,0,0.2-0.1c0.2-0.1,0.3-0.2,0.4-0.3c0.1-0.2,0.1-0.4,0.1-0.7L223.7,50.2L223.7,50.2z"/>
			<path style="fill:#FFFFFF;" d="M233.7,50.1h1.1l1.8,12.8h0.4c0.1,0,0.1,0.1,0.1,0.1s0,0.1-0.1,0.1h-3h-0.1c0,0,0,0,0-0.1v-0.1
				c0,0,0,0,0.1,0h0.5l-0.3-2.5h-1.8l-0.2,1.4c0,0.1,0,0.2,0,0.2c0,0.3,0.1,0.5,0.2,0.6c0.1,0.1,0.3,0.2,0.4,0.2h0.2v0.1V63h-0.1
				h-1.7h-0.1c0,0,0,0,0-0.1v-0.1h0.1c0.2,0,0.3-0.1,0.4-0.2c0.2-0.2,0.3-0.5,0.3-1L233.7,50.1z M233.5,53.4l-1,6.8h1.7L233.5,53.4z
				"/>
			<path style="fill:#FFFFFF;" d="M242.2,51c0-0.3,0-0.5-0.1-0.6s-0.2-0.2-0.4-0.2h-0.4c0,0,0,0,0-0.1V50h0.1h1.7c0,0,0,0,0.1,0
				c0,0,0,0,0,0.1v0.1c0,0-0.1,0-0.2,0.1c-0.2,0.1-0.3,0.2-0.4,0.3c-0.1,0.1-0.1,0.3-0.1,0.6v12.1H241l-2.4-12.1V62
				c0,0.3,0,0.5,0.1,0.6s0.2,0.2,0.4,0.3h0.4V63v0.1h-0.1h-1.7c0,0,0,0-0.1,0c0,0,0,0,0-0.1v-0.1c0,0,0.1,0,0.2-0.1
				c0.2-0.1,0.3-0.2,0.4-0.3c0.1-0.1,0.1-0.3,0.1-0.7V50.2h-0.5h-0.1c0,0,0,0,0-0.1V50h0.1h2.5l2,9.7V51H242.2z"/>
			<path style="fill:#FFFFFF;" d="M247.1,50.2h-0.6c-0.1,0-0.1-0.1-0.1-0.1s0-0.1,0.1-0.1h3.3h0.1c0,0,0,0,0,0.1v0.1h-0.1h-0.6V63
				h0.4c0.3,0,0.6-0.1,0.8-0.2c0.2-0.1,0.4-0.5,0.7-0.9c0.3-0.7,0.5-1.4,0.7-2.3c0.1-0.8,0.2-1.3,0.2-1.6c0-0.1,0-0.1,0-0.2h0.1h0.1
				c0,0,0,0,0,0.1l-0.1,5.3h-5.5h-0.1c0,0,0,0,0-0.1V63h0.1h0.6V50.2H247.1z"/>
			<path style="fill:#FFFFFF;" d="M253.1,53.9h-0.4h-0.1c0,0,0,0,0-0.1v-0.1h0.1h2.1V63h0.4h0.1v0.1v0.1h-0.1h-2.6
				c-0.1,0-0.1-0.1-0.1-0.1s0-0.1,0.1-0.1h0.4v-9.1H253.1z"/>
			<path style="fill:#FFFFFF;" d="M256.5,50.2h-0.6c-0.1,0-0.1-0.1-0.1-0.1s0-0.1,0.1-0.1h5.4v4.9V55c0,0,0,0-0.1,0h-0.1
				c0,0,0-0.1,0-0.3c0-0.7-0.2-1.5-0.4-2.3c-0.2-0.8-0.5-1.4-0.7-1.7c-0.1-0.2-0.2-0.3-0.4-0.3c-0.2-0.1-0.4-0.1-0.7-0.1h-0.3v6.2
				c0.3,0,0.6-0.2,0.8-0.5c0.3-0.5,0.5-1.2,0.5-2.2v-0.5v-0.1c0,0,0,0,0.1,0h0.1c0,0,0,0,0,0.1v6.6V60c0,0,0,0-0.1,0h-0.1
				c0,0,0,0,0-0.1V59c0-0.9-0.2-1.5-0.5-1.9c-0.2-0.3-0.5-0.4-0.8-0.4V63h0.6h0.1c0,0,0,0,0,0.1v0.1c0,0,0,0-0.1,0H256h-0.1
				c0,0,0,0,0-0.1V63h0.1h0.6V50.2H256.5z"/>
			<path style="fill:#FFFFFF;" d="M262.6,50.2H262c-0.1,0-0.1-0.1-0.1-0.1s0-0.1,0.1-0.1h5.6v4.9c0,0.1-0.1,0.1-0.1,0.1h-0.1
				c0,0,0-0.1,0-0.3c0-1-0.2-1.9-0.5-2.7s-0.6-1.4-0.9-1.6c-0.1-0.1-0.4-0.2-0.7-0.2h-0.6v6.2c0.4,0,0.7-0.2,0.9-0.5
				c0.3-0.4,0.5-1.1,0.5-2v-0.7v-0.1h0.1h0.1c0,0,0,0,0,0.1v6.5v0.1c0,0,0,0-0.1,0h-0.1c0,0,0,0,0-0.1v-0.6c0-0.9-0.2-1.6-0.5-2.1
				c-0.2-0.3-0.4-0.4-0.7-0.4c-0.1,0-0.1,0-0.1,0.1c0,0-0.1,0.1-0.1,0.2V63h0.3c0.3,0,0.5-0.1,0.8-0.3s0.5-0.5,0.7-0.9
				s0.4-0.9,0.5-1.4c0.2-0.8,0.3-1.5,0.3-2v-0.6c0-0.1,0.1-0.1,0.1-0.1h0.1c0,0,0,0,0,0.1v5.4H262h-0.1c0,0,0,0,0-0.1V63h0.1h0.6
				V50.2z"/>
		</g>
		<g>
			<path style="fill:#FFFFFF;" d="M252.6,52.1C253.8,51,253.8,51,252.6,52.1c1-1.3,1-1.4,0-2.7c1.1,1.1,1.1,1.1,0,0
				c1.2,1,1.4,1,2.7,0c-1.1,1.1-1.1,1.1,0,0c-1,1.2-1,1.4,0,2.7c-1.1-1.1-1.1-1.1,0,0C254.1,51.1,253.9,51.1,252.6,52.1z"/>
		</g>
	</g>
</g>
</svg>
