<?xml version="1.0" encoding="utf-8"?>
<!-- Generator: Adobe Illustrator 27.9.0, SVG Export Plug-In . SVG Version: 6.00 Build 0)  -->
<svg version="1.1" id="_レイヤー_1" xmlns="http://www.w3.org/2000/svg" xmlns:xlink="http://www.w3.org/1999/xlink" x="0px"
	 y="0px" viewBox="0 0 273.2 63.2" style="enable-background:new 0 0 273.2 63.2;" xml:space="preserve">
<style type="text/css">
	.st0{fill:#FFFFFF;}
	.st1{fill:#FFCF00;}
	.st2{fill:#F9C81C;}
</style>
<g>
	<path class="st0" d="M18.9,23.3C15.1,21,9.4,18.4,5.1,17l-1.3,1.9c3,3.6,6.3,8.3,9.1,13.3L18.9,23.3z"/>
	<path class="st0" d="M24.4,7.4c-4.3-2.3-9.7-4.4-14-5.7l-1.3,2c2.9,3,6.1,7.2,9.1,12.3L24.4,7.4z"/>
	<path class="st0" d="M52.8,45.4c4-1.3,8.1-3.1,11.8-5.4l-7.3-6.3h3.6V7.3H49v-7.5h-8.8v7.5H28.6v45.9c-2.6,0.1-5.1,0.2-7.6,0.2
		l2.7,9.3c7.5-2,14.8-5.1,23.2-9.3l-0.4-1.8c-3.5,0.5-6.8,0.8-10,1.1v-19h5.8c2.6,13.3,8.4,23.2,19,29.3l6-9
		C61.6,52.1,56.1,49.2,52.8,45.4z M36.6,18.7V9.9h16.6v8.8l0,0c0,0.7,0,1.7,0,2.2v0.3l0,0v10H36.6v-10 M44.5,33.7h12.2
		c-1.4,3.4-3.6,6.5-6.2,9.4C48.2,40.6,46.3,37.4,44.5,33.7z"/>
	<path class="st0" d="M20.6,28.5C16.8,37.3,11.2,46.6,4,55l9.2,6.3c4.6-10,7.9-21.7,9.4-31.7L20.6,28.5z"/>
	<g>
		<path class="st1" d="M38.4,26.6C43.6,21.4,43.6,21.4,38.4,26.6c4.7-5.7,4.7-6.5,0-12.2c5.2,5.2,5.2,5.2,0,0
			c5.7,4.7,6.5,4.7,12.2,0c-5.2,5.2-5.2,5.2,0,0c-4.7,5.7-4.7,6.5,0,12.2c-5.2-5.2-5.2-5.2,0,0C44.9,21.9,44.1,21.9,38.4,26.6z"/>
	</g>
</g>
<g>
	<path class="st0" d="M92.2,0.1v18.6h35.3V0.1H92.2z M119.3,16.1h-18.9v-5.5l0,0c0-0.8,0-2,0-2.6l0,0V2.8h18.9V16.1z"/>
	<path class="st0" d="M84.5,28.9c-3.6,8.7-8,17.5-15.5,26.5l10,5.8C83.2,49.8,85.5,40,86.9,30L84.5,28.9z"/>
	<path class="st0" d="M130,53.6c-4.1,0-8.1-0.3-11.8-0.9c4.1-2.3,7.8-5.2,11.3-8.6v-4.7H89.8V42h3.9c2.7,4.6,6.1,8.4,10.1,11.5
		c-6.2,3.1-13,5.7-19.8,7.5l0.7,2.2c8.8-1.3,17.1-3.2,24.7-6.1c6.4,3.3,13.8,5.3,21.9,6.1l2.5-9.7C132.6,53.6,131.3,53.6,130,53.6z
		 M109.4,50.3c-4.8-2-9.1-4.6-12.4-8.4h22.3C116.7,45,113.3,47.8,109.4,50.3z"/>
	<path class="st0" d="M83.3,21.1c-4.2-2.9-8.4-4.9-13-6.4l-1.5,2.2c3,3.8,5.5,7.6,8.1,13.7L83.3,21.1z"/>
	<path class="st0" d="M89.3,6.2c-4.2-2.2-9.1-4.5-13.7-6l-1.5,2c3,3.5,5.9,7.7,8.8,12.9L89.3,6.2z"/>
	<path class="st0" d="M88.5,36h43.2V22.1H88.5V36z M118.9,24.6h4.8v8.8h-4.8V24.6z M107.4,24.6h4.7v8.8h-4.7V24.6z M96.3,24.6h4.1
		v8.8h-4.1V24.6z"/>
	<g>
		<path class="st1" d="M104.1,15.5C109.3,10.4,109.3,10.4,104.1,15.5c4.7-5.7,4.7-6.5,0-12.2c5.2,5.2,5.2,5.2,0,0
			c5.7,4.7,6.5,4.7,12.2,0c-5.2,5.2-5.2,5.2,0,0c-4.7,5.7-4.7,6.5,0,12.2c-5.2-5.2-5.2-5.2,0,0C110.6,10.9,109.8,10.9,104.1,15.5z"
			/>
	</g>
</g>
<g>
	<path class="st0" d="M192,59.7c-11.4-5.9-16.1-16.3-18.9-33.9c-2.9,17.5-12.5,29.6-32.3,36.9l-1.3-2.2c20.5-12.5,25.3-28,25.3-48.4
		V0.7h9.2v11.4c0,2.3-0.1,4.5-0.2,6.6c4.8,20.4,12.2,27.7,26,32.7L192,59.7z"/>
	<g>
		<path class="st1" d="M188.1,62.8C194.6,56.3,194.6,56.3,188.1,62.8c5.9-7.1,5.9-8.1,0-15.2c6.5,6.5,6.5,6.5,0,0
			c7.1,5.9,8.1,5.9,15.2,0c-6.5,6.5-6.5,6.5,0,0c-5.9,7.1-5.9,8.1,0,15.2c-6.5-6.5-6.5-6.5,0,0C196.2,56.9,195.2,56.9,188.1,62.8z"
			/>
	</g>
</g>
<g>
	<path class="st0" d="M236.2,50.2V38.6h-15.8v-3.1h15.8V20.9h-12.4c-3.3,5.7-7.4,10.7-12.8,15.8l-1.5-1.7c5.4-9.3,8.3-19,9.6-30.2
		l10.8,2.5c-1.4,3.8-2.8,7.3-4.4,10.5h10.7l0,0h9l0,0h20.5v3.1h-20.5v14.6h16.6v3.1h-16.6v11.6"/>
	<g>
		<path class="st1" d="M231.9,17.5C239.3,10,239.3,10,231.9,17.5c6.8-8.2,6.8-9.4,0-17.6c7.5,7.5,7.5,7.5,0,0
			c8.2,6.8,9.4,6.8,17.6,0c-7.5,7.5-7.5,7.5,0,0c-6.8,8.2-6.8,9.4,0,17.6c-7.5-7.5-7.5-7.5,0,0C241.2,10.7,240.1,10.7,231.9,17.5z"
			/>
	</g>
	<path class="st0" d="M210.2,50.2h-0.5c-0.1,0-0.1-0.1-0.1-0.1s0-0.1,0.1-0.1h2.9c0.7,0,1.3,0.3,1.9,0.9c0.5,0.6,0.8,1.4,0.8,2.4
		c0,0.6-0.1,1.1-0.3,1.5c-0.2,0.5-0.5,0.8-0.9,1.1c-0.2,0.2-0.6,0.3-1.1,0.5c0.6,0.2,0.9,0.3,1.2,0.5c0.4,0.2,0.6,0.5,0.8,0.9
		c0.2,0.3,0.3,0.8,0.3,1.3v3.2c0,0.1,0,0.2,0.1,0.3c0,0.1,0.1,0.1,0.2,0.1c0.1,0,0.2-0.1,0.3-0.2c0.2-0.2,0.3-0.7,0.3-1.3
		c0-0.1,0-0.2,0.1-0.2l0.1-0.1c0,0,0.1,0,0.1,0.1c0,0,0,0.1,0,0.3c0,0.7-0.2,1.2-0.5,1.5c-0.3,0.3-0.7,0.5-1.2,0.5
		c-0.4,0-0.8-0.1-1-0.3s-0.3-0.5-0.3-0.9v-4.7c0-0.4-0.1-0.7-0.3-0.8c-0.1-0.1-0.4-0.1-0.9-0.1v6.5h0.4h0.1c0,0,0,0,0,0.1v0.1h-0.1
		h-2.9h-0.1c0,0,0,0,0-0.1v-0.1h0.1h0.5V50.2H210.2z M212.1,50.2v6.1h0.4c0.2,0,0.4-0.1,0.5-0.2s0.2-0.3,0.2-0.6v-4.6
		c0-0.3,0-0.4-0.1-0.5s-0.3-0.1-0.6-0.1L212.1,50.2L212.1,50.2z"/>
	<path class="st0" d="M222,55.1v3.2c0,1.9-0.3,3.2-0.9,4.1c-0.4,0.6-1,0.9-1.6,0.9c-0.4,0-0.8-0.1-1.2-0.4c-0.4-0.3-0.7-0.7-0.9-1.3
		c-0.3-0.9-0.5-2-0.5-3.1v-3.8c0-1.8,0.3-3.1,0.9-3.9c0.4-0.6,1-0.9,1.6-0.9c0.3,0,0.6,0.1,0.8,0.2c0.3,0.1,0.5,0.3,0.7,0.6
		c0.2,0.3,0.4,0.6,0.5,1c0.2,0.4,0.3,0.9,0.3,1.3C222,53.7,222,54.4,222,55.1z M218.9,61.8c0,0.5,0.1,0.8,0.2,1
		c0.1,0.1,0.2,0.2,0.4,0.2s0.3-0.1,0.4-0.2c0.1-0.1,0.2-0.3,0.2-0.6V51.1c0-0.3-0.1-0.6-0.2-0.8c-0.1-0.1-0.2-0.2-0.4-0.2
		c-0.1,0-0.3,0.1-0.4,0.2c-0.1,0.2-0.2,0.4-0.2,0.8V61.8z"/>
	<path class="st0" d="M223.2,50.2h-0.5h-0.1c0,0,0,0,0-0.1V50c0,0,0,0,0.1,0h2.5l0.9,8.1l1.1-8.1h2.5h0.1c0,0,0,0,0,0.1v0.1h-0.1
		h-0.6V63h0.6l0,0v0.1v0.1l0,0h-3c0,0,0,0-0.1,0c0,0,0,0,0-0.1V63c0,0,0,0,0.1,0h0.6V50.8l-1.6,12.1c0,0.2,0,0.2-0.1,0.3
		c0,0,0,0-0.1,0h-0.6h-0.1c0,0,0-0.1-0.1-0.3l-1.3-12v11.2c0,0.3,0,0.5,0.1,0.6s0.2,0.2,0.3,0.3h0.4v0.1v0.1h-0.1h-1.6
		c0,0,0,0-0.1,0c0,0,0,0,0-0.1V63c0,0,0.1,0,0.2-0.1c0.2-0.1,0.3-0.2,0.4-0.3c0.1-0.2,0.1-0.4,0.1-0.7V50.2H223.2z"/>
	<path class="st0" d="M232.6,50.2h1l1.6,12.8h0.4c0.1,0,0.1,0.1,0.1,0.1s0,0.1-0.1,0.1h-2.8h-0.1c0,0,0,0,0-0.1V63c0,0,0,0,0.1,0
		h0.4l-0.2-2.5h-1.7l-0.2,1.4c0,0.1,0,0.2,0,0.2c0,0.3,0.1,0.5,0.2,0.6c0.1,0.1,0.2,0.2,0.4,0.2h0.1V63v0.1c0,0,0,0-0.1,0h-1.6H230
		c0,0,0,0,0-0.1v-0.1h0.1c0.2,0,0.3-0.1,0.4-0.2c0.1-0.2,0.3-0.5,0.3-1L232.6,50.2z M232.3,53.5l-0.9,6.8h1.6L232.3,53.5z"/>
	<path class="st0" d="M240.5,51.1c0-0.3,0-0.5-0.1-0.6s-0.2-0.2-0.3-0.2h-0.4c0,0,0,0,0-0.1v-0.1h0.1h1.6c0,0,0,0,0.1,0
		c0,0,0,0,0,0.1v0.1c0,0-0.1,0-0.2,0.1c-0.2,0.1-0.3,0.2-0.4,0.3c-0.1,0.1-0.1,0.3-0.1,0.6v12h-1.4l-2.3-12v10.8
		c0,0.3,0,0.5,0.1,0.6c0.1,0.1,0.2,0.2,0.3,0.3h0.4v0.1v0.1h-0.1h-1.6c0,0,0,0-0.1,0c0,0,0,0,0-0.1V63c0,0,0.1,0,0.2-0.1
		c0.2-0.1,0.3-0.2,0.4-0.3c0.1-0.1,0.1-0.3,0.1-0.7V50.2h-0.5h-0.1c0,0,0,0,0-0.1V50c0,0,0,0,0.1,0h2.4l1.9,9.6L240.5,51.1
		L240.5,51.1z"/>
	<g>
		<path class="st2" d="M248.1,52.2C249.5,51,249.5,51,248.1,52.2c1.2-1.3,1.2-1.4,0-2.7c1.3,1.1,1.3,1.1,0,0c1.5,1,1.7,1,3.1,0
			c-1.3,1.1-1.3,1.1,0,0c-1.2,1.3-1.2,1.4,0,2.7c-1.3-1.1-1.3-1.1,0,0C249.8,51.1,249.6,51.1,248.1,52.2z"/>
	</g>
	<g>
		<path class="st2" d="M266.6,52.2C267.9,51,267.9,51,266.6,52.2c1.2-1.3,1.2-1.4,0-2.7c1.3,1.1,1.3,1.1,0,0c1.5,1,1.7,1,3.1,0
			c-1.3,1.1-1.3,1.1,0,0c-1.2,1.3-1.2,1.4,0,2.7c-1.3-1.1-1.3-1.1,0,0C268.2,51.1,268,51.1,266.6,52.2z"/>
	</g>
	<path class="st0" d="M245.7,50.2h-0.6H245c0,0,0,0,0-0.1c0,0,0-0.1,0.1-0.1h2.8h0.1c0,0,0,0,0,0.1v0.1c0,0,0,0-0.1,0h-0.5v10.7
		c0,0.7-0.2,1.2-0.6,1.7c-0.4,0.4-0.9,0.6-1.6,0.6c-0.6,0-1.1-0.2-1.4-0.6s-0.5-0.9-0.5-1.6c0-0.6,0.1-1,0.3-1.2
		c0.2-0.3,0.4-0.4,0.7-0.4c0.2,0,0.4,0.1,0.5,0.3c0.2,0.2,0.2,0.5,0.2,0.9s-0.1,0.6-0.2,0.8c-0.1,0.2-0.3,0.3-0.5,0.3
		c-0.1,0-0.2,0-0.3-0.1c-0.1,0-0.2-0.1-0.2-0.1h-0.1c0,0-0.1,0.1-0.1,0.2c0,0.3,0.1,0.6,0.4,0.8c0.3,0.3,0.6,0.4,0.8,0.4
		s0.4-0.1,0.6-0.3c0.2-0.2,0.3-0.6,0.3-1L245.7,50.2L245.7,50.2z"/>
	<path class="st0" d="M248.9,54h-0.3h-0.1c0,0,0,0,0-0.1v-0.1c0,0,0,0,0.1,0h1.8V63h0.4h0.1c0,0,0,0,0,0.1v0.1c0,0,0,0-0.1,0h-2.2
		c-0.1,0-0.1-0.1-0.1-0.1s0-0.1,0.1-0.1h0.3V54z"/>
	<path class="st0" d="M255.4,51.1c0-0.3,0-0.5-0.1-0.6s-0.2-0.2-0.3-0.2h-0.4c0,0,0,0,0-0.1v-0.1c0,0,0,0,0.1,0h1.5c0,0,0,0,0.1,0
		c0,0,0,0,0,0.1s0,0.1,0,0.1s-0.1,0-0.1,0.1c-0.2,0.1-0.3,0.2-0.4,0.3s-0.1,0.3-0.1,0.6v12h-1.3l-2.1-12v10.9c0,0.3,0,0.5,0.1,0.6
		s0.2,0.2,0.3,0.2h0.4v0.1v0.1c0,0,0,0-0.1,0h-1.5c0,0,0,0-0.1,0c0,0,0,0,0-0.1s0-0.1,0-0.1s0.1,0,0.1-0.1c0.2-0.1,0.3-0.2,0.4-0.3
		c0.1-0.1,0.1-0.3,0.1-0.6V50.2h-0.5h-0.1c0,0,0,0,0-0.1V50c0,0,0,0,0.1,0h2.2l1.7,9.6V51.1z"/>
	<path class="st0" d="M257.8,62.3c-0.2,0.1-0.4,0.3-0.6,0.5s-0.3,0.3-0.4,0.3l0,0V63v-5.5c0,0,0,0,0-0.1l0,0c0,0,0.1,0,0.1,0.1
		s0.1,0.1,0.1,0.2v0.4c0,0.7,0.1,1.6,0.3,2.5c0.2,0.9,0.5,1.6,0.9,2c0.2,0.2,0.4,0.3,0.6,0.3c0.3,0,0.5-0.1,0.7-0.4
		c0.2-0.3,0.3-0.6,0.3-1.2c0-0.5-0.1-1-0.3-1.6c-0.2-0.7-0.8-1.9-1.6-3.6c-0.5-1-0.8-1.8-1-2.2c-0.1-0.5-0.2-0.9-0.2-1.3
		c0-0.9,0.2-1.5,0.6-2s0.8-0.7,1.3-0.7c0.4,0,0.8,0.2,1.2,0.7c0.3-0.2,0.6-0.4,0.8-0.6c0.1-0.1,0.1-0.1,0.2-0.1l0,0V50v4.7
		c0,0.1,0,0.1,0,0.2c0,0,0,0-0.1,0h-0.1c0,0-0.1-0.2-0.1-0.6c-0.2-1.8-0.5-3-0.9-3.6c-0.2-0.3-0.5-0.5-0.8-0.5
		c-0.2,0-0.4,0.1-0.6,0.3S258,51,258,51.4c0,0.7,0.4,1.8,1.1,3.4l0.7,1.5c0.5,1.1,0.9,1.9,1,2.5c0.2,0.6,0.3,1.2,0.3,1.7
		c0,0.9-0.2,1.5-0.6,2s-0.9,0.7-1.4,0.7C258.6,63.2,258.2,62.9,257.8,62.3z"/>
	<path class="st0" d="M262.3,50.2h-0.5c-0.1,0-0.1-0.1-0.1-0.1s0-0.1,0.1-0.1h4.8v4.9c0,0.1-0.1,0.1-0.1,0.1h-0.1c0,0,0-0.1,0-0.2
		c0-1-0.2-1.9-0.4-2.7c-0.3-0.8-0.5-1.4-0.7-1.6c-0.1-0.1-0.3-0.2-0.6-0.2H264v6.2c0.3,0,0.6-0.2,0.8-0.5c0.3-0.4,0.4-1.1,0.4-2
		v-0.7v-0.1c0,0,0,0,0.1,0h0.1c0,0,0,0,0,0.1v6.5v0.1c0,0,0,0-0.1,0h-0.1c0,0,0,0,0-0.1v-0.6c0-0.9-0.2-1.6-0.5-2.1
		c-0.2-0.3-0.4-0.4-0.6-0.4c-0.1,0-0.1,0-0.1,0.1c0,0-0.1,0.1-0.1,0.2v6h0.3c0.2,0,0.5-0.1,0.7-0.3s0.4-0.5,0.6-0.9s0.3-0.9,0.5-1.4
		c0.2-0.8,0.3-1.5,0.3-2v-0.6c0-0.1,0.1-0.1,0.1-0.1h0.1c0,0,0,0,0,0.1v5.4h-4.8h-0.1c0,0,0,0,0-0.1V63h0.1h0.5V50.2H262.3z"/>
	<path class="st0" d="M267.4,54H267h-0.1c0,0,0,0,0-0.1s0-0.1,0-0.1s0,0,0.1,0h1.8V63h0.4h0.1c0,0,0,0,0,0.1v0.1c0,0,0,0-0.1,0H267
		c-0.1,0-0.1-0.1-0.1-0.1s0-0.1,0.1-0.1h0.3v-9H267.4z"/>
</g>
</svg>
