<?xml version="1.0" encoding="UTF-8"?>
<svg id="_レイヤー_1" data-name="レイヤー 1" xmlns="http://www.w3.org/2000/svg" viewBox="0 0 283.46 283.46">
  <defs>
    <style>
      .cls-1 {
        stroke-width: .62px;
      }

      .cls-1, .cls-2, .cls-3 {
        stroke: #fff;
        stroke-miterlimit: 10;
      }

      .cls-1, .cls-2, .cls-3, .cls-4 {
        fill: #fff;
      }

      .cls-2 {
        stroke-width: .44px;
      }

      .cls-3 {
        stroke-width: .38px;
      }

      .cls-5 {
        fill: #f9c81c;
      }

      .cls-5, .cls-4, .cls-6, .cls-7 {
        stroke-width: 0px;
      }

      .cls-6 {
        fill: #ffe815;
      }

      .cls-7 {
        fill: #ffcf00;
      }
    </style>
  </defs>
  <g>
    <path class="cls-1" d="m203.8,94.72c.64-.46,1.16-.84,1.69-1.22,3.98-2.92,9.69-2.28,13.21.95,3.18,2.92,5.27,6.53,6.63,10.61,1.99,5.98,2.68,12.12,2.09,18.37-.45,4.8-1.47,9.5-3.63,13.88-1.69,3.44-3.95,6.41-7.39,8.31-3.63,1.99-7.18,1.67-10.66-.42-.08-.05-.16-.11-.25-.16-.03-.02-.07-.02-.16-.05-.43.96-.85,1.93-1.3,2.89-3.11,6.78-7.28,12.84-12.38,18.28-4,4.27-8.49,7.95-13.36,11.18-6.57,4.35-13.67,7.56-21.2,9.84-5.01,1.52-10.13,2.5-15.32,3.13-4.88.58-9.77.7-14.65.39-5.64-.36-11.19-1.28-16.67-2.71-6.27-1.63-12.23-4.02-17.94-7.05-6.04-3.21-11.52-7.2-16.52-11.88-3.69-3.46-6.95-7.27-9.77-11.46-2.49-3.7-4.63-7.6-6.36-11.72-.07-.17-.16-.34-.23-.49-.99.66-1.89,1.38-2.89,1.9-4.03,2.11-7.96,1.86-11.73-.7-3.78-2.58-6.01-6.28-7.52-10.49-1.99-5.55-2.73-11.28-2.23-17.16.48-5.57,1.91-10.85,4.84-15.66,1.64-2.7,3.74-5,6.5-6.59,3.67-2.11,7.39-2.07,11.09,0,.65.36,1.26.79,1.93,1.22.11-.24.25-.49.36-.76,3.01-7.16,7.15-13.58,12.38-19.32,4.02-4.41,8.52-8.28,13.45-11.61,7.26-4.9,15.13-8.49,23.56-10.9,3.88-1.11,7.82-1.86,11.81-2.36,1.58-.2,3.18-.3,4.77-.48.22-.03.52-.25.59-.44.84-2.58,2.18-4.9,3.67-7.12,2.05-3.06,4.22-6.04,6.37-9.03.36-.5.86-.94,1.37-1.28.28-.18.88-.26,1.07-.09.23.21.35.79.23,1.1-.4,1.06-.87,2.11-1.43,3.1-1.7,3-3.48,5.95-5.17,8.96-.74,1.32-1.36,2.71-2.03,4.07-.07.13-.08.29-.14.5.25,0,.44,0,.64,0,3.05.14,6.1.26,9.15.43.48.03.76-.1,1.03-.48,1.04-1.49,2.08-2.97,3.18-4.41.42-.55.98-1.02,1.54-1.45.51-.39,1.11-.34,1.47,0,.42.4.48.89.12,1.5-.9,1.57-1.81,3.14-2.72,4.71-.08.13-.15.27-.27.49.23.07.41.14.6.18,3.15.63,6.34,1.1,9.43,1.93,10.57,2.84,20.26,7.54,28.88,14.31,8.2,6.44,14.72,14.29,19.46,23.59.27.54.52,1.09.82,1.7Zm-78.82-37.42c-.2,0-.29,0-.38,0-2.45.3-4.91.49-7.33.92-7.45,1.33-14.56,3.73-21.32,7.15-11.29,5.7-20.48,13.74-27.3,24.43-3.34,5.24-5.86,10.83-7.46,16.84-1,3.78-1.59,7.63-1.81,11.54-.19,3.26-.19,6.51.21,9.74.42,3.44,1.18,6.82,2.17,10.15,1.59,5.39,3.9,10.44,6.92,15.16,4.65,7.26,10.63,13.27,17.59,18.33,4.47,3.24,9.23,5.94,14.32,8.11,5.2,2.22,10.56,3.9,16.11,4.98,4.17.81,8.38,1.29,12.62,1.44,6.91.25,13.76-.28,20.52-1.79,9.74-2.17,18.8-5.92,27.05-11.58,9.86-6.75,17.55-15.39,22.7-26.2,4.05-8.49,5.85-17.48,5.59-26.88-.14-5.09-.97-10.07-2.44-14.94-3.08-10.19-8.64-18.87-16.07-26.4-4.35-4.4-9.3-8.05-14.65-11.14-6.49-3.75-13.39-6.5-20.71-8.16-2.57-.59-5.19-.94-7.79-1.42-.64-.12-.98.07-1.23.72-.79,2.11-1.43,4.25-1.76,6.48-.14.91-.7,1.47-1.46,1.55-.85.08-1.57-.31-1.8-1.2-.21-.8-.35-1.69-.21-2.49.27-1.5.75-2.97,1.16-4.44.1-.35.23-.69.4-1.23-3.07,0-5.98.01-8.9,0-.54,0-.77.22-.88.72-.73,3.54-1.81,7.02-1.96,10.68-.04,1.1-.99,1.87-2.13,1.87-1.06,0-1.91-.78-1.99-1.88-.04-.51-.03-1.04.07-1.53.56-2.66,1.15-5.31,1.74-7.96.11-.51.26-1.01.4-1.58ZM39.13,122.1c0,5.73.58,10.2,2.4,14.44,1.07,2.49,2.37,4.8,4.43,6.63,1.19,1.05,2.52,1.84,4.1,2.1,3.2.54,5.74-.7,7.9-2.96.26-.27.33-.54.21-.91-1.31-4.06-2.25-8.19-2.72-12.44-.46-4.13-.66-8.25-.28-12.39.43-4.58,1.25-9.09,2.61-13.49.06-.2,0-.52-.13-.67-2.38-2.62-5.83-3.29-8.99-1.73-2.49,1.23-4.16,3.28-5.46,5.65-2.9,5.27-4.1,10.96-4.07,15.77Zm183.72-2.95c.13-5.01-.85-9.54-2.02-12.95-1.15-3.36-2.85-6.35-5.59-8.69-.84-.72-1.72-1.25-2.92-1.13-.86.09-1.74.01-2.6.02-.19,0-.41.02-.56.12-.77.47-1.55.93-2.28,1.46-.41.3-.74.7-1.07,1.09-.22.27-.27.54.15.76.16.08.24.4.3.62.09.36.08.74.19,1.08.14.43.4.81.53,1.24,1.52,4.83,2.52,9.76,2.82,14.82.31,5.16.04,10.28-.99,15.36-.31,1.52-.61,3.05-.82,4.59-.08.59.06,1.23.18,1.84.09.42.32.8.48,1.2.2.52.19,1.02.99,1.27.83.27,1.62.45,2.45.37,2-.19,3.43-1.42,4.73-2.78,1.78-1.86,2.86-4.15,3.77-6.51,1.7-4.44,2.33-9.06,2.26-13.8Z"/>
    <path class="cls-4" d="m226.52,49.04c.58-.38,1.05-.68,1.52-1,2.81-1.89,5.61-3.81,8.43-5.68,1.58-1.04,3.21-2.01,4.8-3.03.45-.28.88-.6,1.29-.93,1.26-1.01,2.5-2.04,3.75-3.06.89-.73,2.32-.62,3.11.25.85.94.86,2.3-.04,3.13-2.65,2.46-5.55,4.58-8.63,6.47-2.79,1.71-5.44,3.63-8.16,5.44-.74.49-1.51.94-2.24,1.44-1.88,1.28-3.69,2.62-4.94,4.59-.62.98-1.79,1.32-2.75.92-1.06-.44-1.63-1.4-1.44-2.57.17-1.1.48-2.19.62-3.3.14-1.13.14-2.28.24-3.41.22-2.69.46-5.37.7-8.05.07-.8.13-1.61.27-2.4.09-.52-.13-.64-.56-.63-1.26.05-2.4-.37-3.52-.87-.63-.28-1.03-.72-1.04-1.44,0-.69.5-.99,1.02-1.24,1.24-.6,2.57-.9,3.93-.97.56-.03.62-.26.64-.72.11-3.19.34-6.36.94-9.5.07-.39.16-.77.23-1.15,0-.05-.03-.11-.07-.26-.18.1-.35.18-.49.28-3.37,2.6-6.72,5.22-10.11,7.79-.61.46-1.34.87-2.08,1.05-1.01.24-1.97-.42-2.36-1.37-.4-.97-.14-2.04.71-2.71,1.01-.81,2.05-1.6,3.09-2.39,3.47-2.64,6.94-5.27,10.41-7.91,1.02-.78,2-1.6,3.05-2.34,1.05-.75,2.24-.64,3.07.2.61.61.78,1.35.58,2.18-.94,3.78-1.62,7.62-1.96,11.5-.14,1.65-.24,3.3-.38,4.94-.04.5.14.66.63.64,1.68-.07,3.35.04,4.93.71,1.45.62,2.03,2.11,1.29,3.32-.55.91-1.75,1.38-2.85.98-1.26-.46-2.54-.49-3.84-.5-.4,0-.56.13-.6.53-.26,2.7-.53,5.4-.81,8.1-.09.84-.23,1.67-.34,2.5-.02.11,0,.23,0,.48Z"/>
    <path class="cls-4" d="m206.18,63.89c-.89-.05-1.67-.1-2.45-.15-.08,0-.16-.01-.23-.04-.58-.22-1.21-.41-1.27-1.15-.06-.71.48-1.09,1.02-1.31.92-.38,1.89-.68,2.85-.95.37-.1.47-.24.48-.59.07-1.57.15-3.14.25-4.71.04-.54.15-1.07.23-1.66-.12.03-.21.02-.26.06-1.84,1.45-3.67,2.91-5.51,4.35-.68.53-1.41,1.01-2.08,1.56-.9.73-1.99.84-2.9.24-.86-.57-1.2-1.6-.85-2.66.09-.27.25-.56.46-.74.97-.83,1.96-1.65,2.97-2.43,1.63-1.25,3.27-2.47,4.93-3.68,1.27-.93,2.53-1.88,3.87-2.71.64-.39,1.46-.74,2.19-.71,1.47.05,2.36,1.14,2.04,3.17-.43,2.7-.78,5.41-1.18,8.11-.06.44-.19.87-.32,1.42.61-.1,1.14-.18,1.67-.26.27-.04.54-.1.81-.16,1.21-.25,2.48.45,2.79,1.52.34,1.18-.31,2.38-1.54,2.83-.29.11-.6.18-.91.23-.81.15-1.62.32-2.44.42-.55.07-.71.37-.75.87-.11,1.35-.24,2.7-.38,4.06-.03.33-.09.65-.16,1.12.26-.12.44-.18.58-.27,3.65-2.34,7.29-4.69,10.95-7.01.67-.42,1.39-.79,2.23-.57,1.01.26,1.6.96,1.76,1.94.16.96-.3,1.74-1.1,2.26-1.35.89-2.73,1.74-4.09,2.6-2.74,1.74-5.51,3.46-8.22,5.25-.93.61-1.73,1.42-2.55,2.19-.74.7-2.27.71-3.03-.08-.68-.72-.97-1.52-.63-2.54.2-.58.27-1.23.29-1.85.07-1.85.06-3.7.14-5.55.03-.8.19-1.59.29-2.42Z"/>
    <path class="cls-4" d="m107.08,108.23c-4.37-.18-8.54.74-12.56,2.38-1.18.48-2.28,1.16-3.44,1.71-.55.26-1.13.49-1.72.61-1.35.27-2.43-.85-1.98-2.04.11-.29.35-.6.61-.76,1.8-1.09,3.63-2.15,5.45-3.2,2.62-1.52,5.47-2.27,8.46-2.61,1.48-.17,2.94-.63,4.43-.72,1.62-.1,3.28-.05,4.88.17,1.41.19,2.08,1.29,1.85,2.55-.16.88-.69,1.51-1.57,1.64-1.12.17-2.27.2-3.41.27-.33.02-.67,0-1.01,0Z"/>
    <path class="cls-4" d="m160.13,103.2c2.03.17,4.23.33,6.42.55.66.07,1.31.29,1.94.5,1.04.35,2.07.75,3.11,1.13.82.3,1.54.71,1.85,1.61.28.82.12,1.58-.41,2.22-.55.66-1.32,1.06-2.16.77-1.52-.52-2.97-1.22-4.48-1.77-.69-.25-1.45-.38-2.18-.43-3.33-.2-6.65-.35-9.98-.51-1.55-.07-2.44-1.07-2.1-2.38.21-.77.74-1.24,1.51-1.3,2.1-.16,4.2-.27,6.49-.4Z"/>
    <path class="cls-4" d="m112.96,80.12c1.56.15,3.06.27,4.56.45.53.06.87.44.99.97.1.45-.03.86-.4,1.09-.27.17-.65.27-.97.26-1.12-.05-2.23-.25-3.34-.24-2.99.03-5.98.14-8.97.22-.33,0-.67,0-1,0-.44,0-.7-.2-.77-.64-.08-.5.24-.68.63-.77,1.34-.29,2.68-.64,4.04-.83,1.75-.24,3.51-.35,5.25-.52Z"/>
    <path class="cls-4" d="m160.93,78.68c1.13.09,2.45.18,3.76.29.59.05.99.35,1.14.95.14.56-.03,1.02-.47,1.37-.44.35-.89.32-1.44.14-.77-.26-1.6-.5-2.4-.49-2.52.04-5.04.15-7.56.34-.81.06-1.59.43-2.38.66-.44.13-.9.31-1.17-.27-.19-.42.04-.7.71-1.02,2.29-1.11,4.74-1.56,7.25-1.77.79-.07,1.57-.11,2.55-.18Z"/>
    <path class="cls-4" d="m123.69,138.38c2.92,0,5.77.43,8.61,1.1,2.27.53,4.52.35,6.74-.47,2.44-.91,4.98-1.42,7.6-1.05,1.84.26,3.61.8,5.28,1.65.98.5,1.85,1.17,2.41,2.13,1.65,2.87,3.25,5.79,4.19,8.97,1.28,4.35.2,8.15-3.39,11.07-1.96,1.59-4.11,2.88-6.64,3.33-1.28.23-2.62.16-3.87.46-2.85.7-5.71.61-8.58.42-.62-.04-1.24-.32-1.86-.33-1.19-.02-2.42-.07-3.58.15-1.91.37-3.83.47-5.76.49-.41,0-.83,0-1.24-.03-1.59-.12-2.9.31-3.99,1.58-1.16,1.36-2.67,2.06-4.53,1.7-1.7-.32-2.86-1.97-2.57-3.67.03-.17-.04-.48-.15-.53-2.01-.95-4.03-1.88-6.05-2.79-.81-.36-1.67-.6-2.45-1.01-2.41-1.24-3.55-3.43-4.25-5.91-.52-1.85-.55-3.74-.37-5.63.02-.25.08-.51.18-.74,1.35-3.23,3.22-6.01,6.59-7.46,2.64-1.14,5.3-2.25,8.16-2.72.95-.16,1.92-.18,2.88-.25,2.22-.16,4.44-.31,6.67-.46Zm-5.98,24.94c1.11-.99,2.54-1.46,4.08-1.59,1.14-.1,2.28-.12,3.43-.13,1.76-.02,3.49-.17,5.23-.52,1.73-.35,3.49-.29,5.23.1.69.15,1.4.2,2.1.26,3.39.32,6.65-.71,9.98-.97,1.62-.13,2.91-1.15,4.2-2.06,2.03-1.43,2.81-3.42,2.23-5.78-.74-3-2.25-5.7-3.73-8.39-.1-.18-.29-.36-.48-.42-1.34-.44-2.67-1-4.05-1.22-1.82-.3-3.63.1-5.33.76-3.39,1.32-6.8,1.36-10.27.48-1.82-.46-3.67-.77-5.56-.69-1.99.08-3.98.19-5.96.3-1.34.07-2.69.09-4.01.28-2.34.34-4.48,1.33-6.67,2.17-2.16.83-3.27,2.63-4.23,4.56-.08.15-.08.35-.08.52,0,.77-.07,1.55.04,2.3.45,3.1,1.35,4.09,3.59,4.88,3.63,1.27,7.06,2.96,10.28,5.17Z"/>
  </g>
  <g>
    <g>
      <path class="cls-4" d="m41.64,214.79c-3.27-1.64-8.17-3.43-11.86-4.43l-1.15,1.34c2.6,2.59,5.45,5.87,7.87,9.4l5.14-6.31Z"/>
      <path class="cls-4" d="m46.42,203.55c-3.69-1.64-8.35-3.13-12.1-4.03l-1.15,1.44c2.48,2.14,5.27,5.12,7.87,8.7l5.39-6.12Z"/>
      <path class="cls-4" d="m70.93,230.5c3.45-.9,7.02-2.19,10.17-3.83l-6.29-4.48h3.09v-18.7h-10.23v-5.32h-7.63v5.32h-9.99v32.57c-2.24.1-4.42.15-6.6.15l2.36,6.56c6.48-1.44,12.77-3.63,20.03-6.61l-.36-1.29c-3.03.35-5.87.6-8.59.8v-13.48h5.02c2.18,9.4,7.2,16.41,16.34,20.73l5.2-6.41c-4.96-1.29-9.68-3.33-12.53-6.02Zm-14.04-18.94v-6.27h14.28v6.27h0v1.79h0v7.06h-14.28v-7.06m6.9,8.85h10.53c-1.21,2.39-3.09,4.57-5.39,6.66-2-1.79-3.63-4.03-5.14-6.66Z"/>
      <path class="cls-4" d="m43.15,218.52c-3.33,6.22-8.17,12.78-14.34,18.75l7.93,4.48c3.93-7.11,6.84-15.37,8.11-22.48l-1.69-.75Z"/>
      <path class="cls-7" d="m58.47,217.16q4.46-3.67,0,0c4.03-4.02,4.03-4.6,0-8.62q4.46,3.67,0,0c4.9,3.31,5.6,3.31,10.5,0q-4.46,3.67,0,0c-4.03,4.02-4.03,4.6,0,8.62q-4.46-3.67,0,0c-4.9-3.31-5.6-3.31-10.5,0Z"/>
    </g>
    <g>
      <path class="cls-4" d="m104.9,198.36v13.17h30.45v-13.17h-30.45Zm23.4,11.38h-16.28v-3.9h0c0-.53,0-1.43,0-1.85h0v-3.74h16.28v9.48Z"/>
      <path class="cls-4" d="m98.23,218.76c-3.12,6.2-6.92,12.4-13.41,18.81l8.73,4.1c3.62-8.1,5.55-15.02,6.8-22.09l-2.12-.82Z"/>
      <path class="cls-4" d="m137.53,236.29c-3.56,0-6.99-.21-10.17-.67,3.49-1.64,6.74-3.69,9.73-6.1v-3.33h-34.25v1.85h3.37c2.31,3.28,5.24,5.95,8.73,8.15-5.37,2.26-11.29,4.05-17.09,5.33l.62,1.59c7.61-.92,14.79-2.26,21.34-4.36,5.49,2.31,11.92,3.74,18.9,4.36l2.12-6.87c-1.12.05-2.25.05-3.31.05Zm-17.84-2.31c-4.18-1.38-7.86-3.28-10.73-5.95h19.28c-2.18,2.15-5.12,4.15-8.55,5.95Z"/>
      <path class="cls-4" d="m97.23,213.22c-3.62-2.05-7.24-3.49-11.23-4.56l-1.31,1.59c2.56,2.66,4.74,5.38,6.99,9.74l5.55-6.77Z"/>
      <path class="cls-4" d="m102.41,202.66c-3.62-1.59-7.86-3.18-11.85-4.25l-1.31,1.38c2.56,2.46,5.12,5.43,7.61,9.18l5.55-6.3Z"/>
      <path class="cls-4" d="m101.66,223.78h37.25v-9.84h-37.25v9.84Zm26.27-8.05h4.18v6.2h-4.18v-6.2Zm-9.92,0h4.06v6.2h-4.06v-6.2Zm-9.55,0h3.56v6.2h-3.56v-6.2Z"/>
      <path class="cls-7" d="m115.15,209.3q4.46-3.67,0,0c4.03-4.02,4.03-4.6,0-8.62q4.46,3.67,0,0c4.89,3.31,5.6,3.31,10.49,0q-4.46,3.67,0,0c-4.03,4.02-4.03,4.6,0,8.62q-4.46-3.67,0,0c-4.89-3.31-5.6-3.31-10.49,0Z"/>
    </g>
    <g>
      <path class="cls-4" d="m191,240.61c-9.84-4.19-13.89-11.52-16.29-24.05-2.46,12.38-10.74,21.01-27.85,26.14l-1.08-1.53c17.65-8.83,21.85-19.88,21.85-34.33v-8.09h7.92v8.09c0,1.63-.06,3.16-.18,4.69,4.14,14.45,10.5,19.62,22.44,23.17l-6.81,5.91Z"/>
      <path class="cls-7" d="m187.61,242.8q5.59-4.6,0,0c5.05-5.04,5.05-5.76,0-10.81q5.59,4.6,0,0c6.14,4.15,7.02,4.15,13.15,0q-5.59,4.6,0,0c-5.05,5.04-5.05,5.76,0,10.81q-5.59-4.6,0,0c-6.14-4.15-7.02-4.15-13.15,0Z"/>
    </g>
    <g>
      <path class="cls-4" d="m229.12,231.63v-6.76h-13.65v-2.21h13.65v-10.28h-10.71c-2.88,3.99-6.35,7.54-11,11.09l-1.29-1.2c4.65-6.58,7.12-13.4,8.3-21.28l9.3,1.78c-1.18,2.69-2.41,5.14-3.82,7.4h34.65v2.21h-17.65v10.28h14.3v2.21h-14.3l-.03,6.76"/>
      <path class="cls-7" d="m225.38,210q6.46-5.27,0,0c5.83-5.78,5.83-6.61,0-12.4q6.46,5.27,0,0c7.09,4.76,8.1,4.76,15.19,0q-6.46,5.27,0,0c-5.83,5.78-5.83,6.61,0,12.4q-6.46-5.27,0,0c-7.09-4.76-8.1-4.76-15.19,0Z"/>
      <g>
        <g>
          <path class="cls-4" d="m206.74,231.58h-.5c-.06-.03-.09-.06-.09-.09,0-.03.03-.06.09-.09h2.66c.66,0,1.23.24,1.72.71.48.48.73,1.12.73,1.95,0,.47-.09.89-.28,1.26-.19.37-.46.67-.83.91-.22.14-.56.28-1.02.42.52.13.87.25,1.08.37.34.2.6.44.76.72.17.28.25.65.25,1.09v2.62c0,.12.02.2.07.25.05.05.1.07.18.07.11,0,.21-.06.3-.18.15-.19.24-.54.28-1.03,0-.09.02-.14.05-.17.03-.03.05-.04.08-.04.03,0,.06.02.08.05.03.04.04.11.04.21,0,.53-.15.94-.45,1.23s-.68.43-1.14.43c-.41,0-.71-.09-.92-.26-.21-.18-.31-.43-.31-.75v-3.79c0-.32-.1-.54-.29-.65-.11-.06-.38-.09-.79-.09v5.27h.41s.08,0,.11.03c.03.02.04.04.04.06s-.01.04-.04.06c-.03.02-.06.03-.11.03h-2.67s-.06,0-.08-.02c-.02-.02-.03-.04-.03-.07s.01-.05.03-.07c.02-.02.05-.02.08-.02h.5v-10.42Zm1.75,0v4.96h.41c.2,0,.36-.06.48-.17.12-.11.18-.28.18-.5v-3.72c0-.21-.04-.36-.13-.44-.09-.08-.27-.12-.53-.12h-.41Z"/>
          <path class="cls-4" d="m217.64,235.57v2.64c0,1.52-.29,2.64-.86,3.34-.4.49-.89.73-1.48.73-.4,0-.77-.12-1.11-.37-.34-.24-.6-.6-.8-1.07-.31-.76-.47-1.6-.47-2.53v-3.09c0-1.44.28-2.51.86-3.21.4-.48.88-.72,1.47-.72.28,0,.54.05.78.16.24.11.45.26.64.47s.35.48.5.82c.15.34.26.7.32,1.06.1.63.15,1.21.15,1.76Zm-2.92,5.54c0,.37.07.64.2.81.1.12.23.18.37.18s.27-.05.37-.16.16-.26.16-.46v-9.18c0-.26-.07-.46-.21-.62-.1-.11-.22-.17-.36-.17-.13,0-.24.05-.34.16-.13.14-.19.35-.19.62v8.82Z"/>
          <path class="cls-4" d="m218.74,231.58h-.5s-.05,0-.07-.03c-.02-.02-.03-.04-.03-.06,0-.03,0-.05.03-.07.02-.02.04-.03.07-.03h2.3l.81,6.57,1.04-6.57h2.3s.06,0,.08.03c.02.02.03.04.03.06,0,.03-.01.05-.03.07-.02.02-.05.03-.08.03h-.55v10.42h.55s.03,0,.03.01c.02.02.03.05.03.08,0,.03,0,.05-.02.06-.01.01-.03.02-.04.02h-2.79s-.04,0-.06-.02c-.02-.02-.03-.04-.03-.07s0-.05.03-.07c.02-.02.04-.02.06-.02h.58v-9.95l-1.49,9.88c-.02.13-.04.2-.06.22-.02.02-.04.03-.08.03h-.55s-.06,0-.08-.03c-.02-.02-.03-.09-.05-.22l-1.22-9.78v9.08c0,.25.03.42.09.52.06.1.16.17.31.21l.38.03s.04.04.04.09c0,.04,0,.06-.02.08s-.05.02-.11.02h-1.5s-.04,0-.06-.02c-.01-.01-.02-.03-.02-.06s0-.04.02-.05c.01-.01.06-.03.15-.06.18-.06.29-.13.36-.22.08-.12.13-.3.13-.53v-9.65Z"/>
          <path class="cls-4" d="m227.36,231.55h.93l1.51,10.45h.38c.06.03.09.06.09.09s-.03.06-.09.09h-2.55s-.05,0-.07-.02c-.02-.02-.03-.04-.03-.07s0-.05.03-.07c.02-.02.04-.02.07-.02h.41l-.22-2.04h-1.56l-.18,1.15c0,.06,0,.13,0,.19,0,.21.05.37.14.48s.22.17.39.2l.14.04s.03.04.03.07,0,.05-.03.07c-.02.02-.04.03-.07.03h-1.45s-.05,0-.07-.03c-.02-.02-.03-.04-.03-.07s0-.05.03-.07l.1-.03c.16-.02.29-.08.38-.19.14-.17.23-.44.29-.83l1.43-9.41Zm-.22,2.67l-.85,5.54h1.49l-.64-5.54Z"/>
          <path class="cls-4" d="m234.69,232.28c0-.22-.03-.38-.1-.47-.07-.09-.17-.16-.31-.2l-.36-.03s-.04-.04-.04-.08c0-.04,0-.06.02-.08.01-.01.05-.02.11-.02h1.5s.04,0,.06.03c.01.02.02.04.02.06s0,.04-.02.05c-.01.01-.06.03-.15.06-.18.06-.3.13-.36.23s-.11.27-.13.52v9.83h-1.31l-2.11-9.82v8.89c0,.24.03.41.09.51.06.1.16.17.3.2l.38.03s.04.04.04.09c0,.04,0,.06-.02.08-.01.01-.05.02-.11.02h-1.5s-.04,0-.06-.02c-.01-.01-.02-.03-.02-.06s0-.04.02-.05c.01-.01.06-.03.15-.06.17-.06.29-.13.36-.22s.11-.27.12-.53v-9.65h-.47s-.05,0-.07-.03c-.02-.02-.03-.04-.03-.07,0-.02,0-.04.03-.06.02-.02.04-.03.07-.03h2.19l1.71,7.88v-7Z"/>
          <path class="cls-4" d="m238.91,231.58h-.53c-.06-.03-.09-.06-.09-.09,0-.03.03-.06.09-.09h2.82s.05,0,.07.03c.02.02.03.04.03.06,0,.03,0,.05-.03.07-.02.02-.04.03-.07.03h-.56v10.41h.36c.25,0,.48-.06.67-.18.19-.12.38-.37.56-.76.27-.56.46-1.18.58-1.84.12-.67.19-1.09.19-1.28,0-.07.02-.11.03-.13l.07-.02.07.02s.03.04.03.06l-.07,4.31h-4.76s-.05,0-.07-.02c-.02-.02-.03-.04-.03-.07s0-.05.03-.07c.02-.02.04-.02.07-.02h.53v-10.42Z"/>
          <path class="cls-4" d="m244.06,234.67h-.33s-.06,0-.08-.02c-.02-.02-.03-.04-.03-.07s0-.05.03-.07c.02-.02.05-.02.08-.02h1.85v7.51h.36s.06,0,.08.02c.02.02.03.04.03.07,0,.02,0,.04-.03.06-.02.02-.05.02-.08.02h-2.21c-.06-.03-.08-.06-.08-.09,0-.03.03-.06.08-.09h.33v-7.33Z"/>
          <path class="cls-4" d="m247.05,231.58h-.52c-.06-.03-.09-.06-.09-.09,0-.03.03-.06.09-.09h4.67v3.98s0,.04-.02.06c-.02.01-.04.02-.06.02-.03,0-.06,0-.07-.03-.02-.02-.03-.09-.03-.22-.03-.59-.15-1.22-.36-1.9-.21-.67-.41-1.13-.6-1.38-.1-.12-.21-.21-.35-.27s-.35-.08-.63-.08h-.29v5.04c.27-.02.49-.16.68-.41.28-.39.43-.99.43-1.8v-.39s0-.05.03-.06c.02-.01.04-.02.07-.02s.05,0,.07.03c.02.02.03.04.03.06v5.37s0,.05-.03.06c-.02.01-.04.02-.07.02l-.06-.02s-.04-.04-.04-.06v-.64c0-.69-.14-1.22-.42-1.58-.18-.23-.41-.36-.69-.37v5.19h.54s.05,0,.07.02c.02.02.03.04.03.07s0,.05-.03.07c-.02.02-.04.02-.07.02h-2.8s-.07,0-.09-.03c-.02-.02-.03-.04-.03-.06,0-.03.01-.05.03-.07.02-.02.05-.02.09-.02h.52v-10.42Z"/>
          <path class="cls-4" d="m252.27,231.58h-.55c-.06-.03-.09-.06-.09-.09,0-.03.03-.06.08-.09h4.82v3.99s-.07.07-.1.07-.06,0-.07-.02c-.01-.02-.02-.08-.03-.2-.04-.79-.19-1.53-.44-2.21-.26-.68-.5-1.11-.74-1.29-.12-.1-.33-.14-.63-.14h-.53v5.04c.32-.03.58-.17.79-.43.27-.35.41-.88.41-1.61v-.56s0-.04.03-.06c.02-.02.04-.03.07-.03s.05,0,.07.03c.02.02.03.04.03.06v5.32s0,.04-.03.06c-.02.02-.04.03-.07.03s-.05,0-.07-.03c-.02-.02-.03-.04-.03-.06v-.52c0-.71-.15-1.27-.46-1.68-.18-.24-.37-.36-.57-.36-.05,0-.09.01-.12.04-.03.03-.05.09-.05.16v4.99h.27c.23,0,.46-.07.69-.22.23-.15.44-.4.63-.76.2-.36.35-.75.46-1.18.18-.69.26-1.22.26-1.61v-.47c.04-.05.08-.08.11-.08s.06,0,.08.02c.02.01.03.03.03.06v4.43h-4.81s-.07,0-.09-.03c-.02-.02-.03-.04-.03-.06,0-.03.01-.05.03-.07.02-.02.05-.02.09-.02h.54v-10.42Z"/>
        </g>
        <path class="cls-5" d="m243.68,233.16q.98-.93,0,0c.89-1.02.89-1.16,0-2.18q.98.93,0,0c1.08.84,1.23.84,2.31,0q-.98.93,0,0c-.89,1.02-.89,1.16,0,2.18q-.98-.93,0,0c-1.08-.84-1.23-.84-2.31,0Z"/>
      </g>
    </g>
  </g>
  <g>
    <g>
      <path class="cls-4" d="m38.32,33.54c0,1.03-.76,1.78-1.73,1.81-1.02.02-1.76-.78-1.8-1.67-.04-1.08.82-1.86,1.79-1.85.92,0,1.7.78,1.73,1.71Z"/>
      <path class="cls-4" d="m27.42,43.4c0,.92-.67,1.58-1.53,1.6-.91.02-1.56-.69-1.59-1.48-.04-.96.73-1.65,1.59-1.64.82,0,1.51.69,1.54,1.52Z"/>
      <path class="cls-4" d="m26.93,33.71c0,.69-.51,1.19-1.16,1.21-.68.02-1.18-.52-1.2-1.12-.03-.73.55-1.25,1.2-1.24.62,0,1.14.52,1.16,1.15Z"/>
      <path class="cls-4" d="m37.26,42.09c0,.53-.39.91-.89.92-.52.01-.9-.4-.92-.85-.02-.56.42-.95.92-.95.47,0,.87.4.89.88Z"/>
      <line class="cls-2" x1="50.28" y1="22.92" x2="38.08" y2="33.59"/>
      <line class="cls-3" x1="35.13" y1="33.75" x2="26.56" y2="33.75"/>
      <line class="cls-3" x1="25.77" y1="41.88" x2="25.77" y2="34.81"/>
      <line class="cls-2" x1="35.87" y1="42.3" x2="27.2" y2="43.73"/>
    </g>
    <polygon class="cls-6" points="51.09 20.13 51.85 22.17 53.97 22.71 52.25 24.06 52.4 26.24 50.58 25.03 48.56 25.84 49.15 23.74 47.75 22.06 49.93 21.97 51.09 20.13"/>
  </g>
  <path class="cls-7" d="m111.94,25.24q6.3-1.98,0,0c6.11-2.59,6.45-3.24,5.09-9.73q1.98,6.3,0,0c2.59,6.11,3.24,6.45,9.73,5.09q-6.3,1.98,0,0c-6.11,2.59-6.45,3.24-5.09,9.73q-1.98-6.3,0,0c-2.59-6.11-3.24-6.45-9.73-5.09Z"/>
  <path class="cls-7" d="m237.12,82.36q6.56-.73,0,0c6.49-1.37,6.95-1.95,6.85-8.58q.73,6.56,0,0c1.37,6.49,1.95,6.95,8.58,6.85q-6.56.73,0,0c-6.49,1.37-6.95,1.95-6.85,8.58q-.73-6.56,0,0c-1.37-6.49-1.95-6.95-8.58-6.85Z"/>
  <path class="cls-7" d="m11.48,166.05q6.3-1.98,0,0c6.11-2.59,6.45-3.24,5.09-9.73q1.98,6.3,0,0c2.59,6.11,3.24,6.45,9.73,5.09q-6.3,1.98,0,0c-6.11,2.59-6.45,3.24-5.09,9.73q-1.98-6.3,0,0c-2.59-6.11-3.24-6.45-9.73-5.09Z"/>
  <path class="cls-7" d="m27.7,171.84q3.77.62,0,0c3.83.25,4.18,0,5.16-3.7q-.62,3.77,0,0c-.25,3.83,0,4.18,3.7,5.16q-3.77-.62,0,0c-3.83-.25-4.18,0-5.16,3.7q.62-3.77,0,0c.25-3.83,0-4.18-3.7-5.16Z"/>
  <path class="cls-7" d="m52.59,262.77q-6.59-.48,0,0c-6.63.16-7.19.64-8.31,7.18q.48-6.59,0,0c-.16-6.63-.64-7.19-7.18-8.31q6.59.48,0,0c6.63-.16,7.19-.64,8.31-7.18q-.48,6.59,0,0c.16,6.63.64,7.19,7.18,8.31Z"/>
  <path class="cls-7" d="m264.57,161.51q0-6.6,0,0c-.64-6.6-1.16-7.12-7.76-7.76q6.6,0,0,0c6.6-.64,7.12-1.16,7.76-7.76q0,6.6,0,0c.64,6.6,1.16,7.12,7.76,7.76q-6.6,0,0,0c-6.6.64-7.12,1.16-7.76,7.76Z"/>
  <path class="cls-4" d="m203.7,266.25c-.01,2.44-1.78,4.21-4.08,4.26-2.41.05-4.15-1.85-4.24-3.93-.11-2.56,1.95-4.39,4.23-4.37,2.18.02,4.02,1.84,4.09,4.04Z"/>
  <path class="cls-4" d="m70.22,59.93c0,1.31-.96,2.26-2.2,2.29-1.3.03-2.23-.99-2.28-2.12-.06-1.38,1.05-2.36,2.27-2.35,1.17,0,2.16.99,2.2,2.17Z"/>
</svg>